<!-- Generator: Adobe Illustrator 19.1.0, SVG Export Plug-In . SVG Version: 6.00 Build 0) 
Source: https://www.shareicon.net/ring-fashion-engagement-ring-jewelry-jewel-diamond-gem-747599 -->
<svg version="1.1" id="Capa_1" xmlns="http://www.w3.org/2000/svg" xmlns:xlink="http://www.w3.org/1999/xlink" x="0px" y="0px"
	 viewBox="0 0 428.84 428.84" style="enable-background:new 0 0 428.84 428.84;" xml:space="preserve">
<g>
	<g id="XMLID_1_">
		<g>
			<path style="fill:#EFEF78;" d="M247.68,133.47c63.83,15.03,111.35,72.34,111.35,140.76c0,79.86-64.75,144.61-144.61,144.61
				c-79.87,0-144.61-64.75-144.61-144.61c0-68.42,47.51-125.73,111.34-140.76h-0.03l-9.88-35.41h30.81h12.36h12.37h30.8l-9.86,35.41
				H247.68z M328.37,274.23c0-62.94-51.02-113.96-113.95-113.96c-62.94,0-113.96,51.02-113.96,113.96
				c0,62.93,51.02,113.95,113.96,113.95C277.35,388.18,328.37,337.16,328.37,274.23z"/>
			<polygon style="fill:#7FDDD3;" points="269.72,38.5 226.78,98.05 226.78,98.06 214.41,98.06 214.41,38.5 			"/>
			<polygon style="fill:#7FDDD3;" points="269.72,38.5 214.41,38.5 159.11,38.5 191.5,10 237.32,10 			"/>
			<polygon style="fill:#7FDDD3;" points="214.41,38.5 214.41,98.06 202.05,98.06 202.05,98.05 159.11,38.5 			"/>
		</g>
		<g>
			<path style="fill:none;stroke:#000000;stroke-width:20;stroke-linejoin:round;stroke-miterlimit:10;" d="M328.37,274.23
				c0,62.93-51.02,113.95-113.95,113.95c-62.94,0-113.96-51.02-113.96-113.95c0-62.94,51.02-113.96,113.96-113.96
				C277.35,160.27,328.37,211.29,328.37,274.23z"/>
			<path style="fill:none;stroke:#000000;stroke-width:20;stroke-linejoin:round;stroke-miterlimit:10;" d="M202.05,98.06h-30.81
				l9.88,35.41h0.03C117.32,148.5,69.81,205.81,69.81,274.23c0,79.86,64.74,144.61,144.61,144.61
				c79.86,0,144.61-64.75,144.61-144.61c0-68.42-47.52-125.73-111.35-140.76h0.04l9.86-35.41h-30.8h-12.37H202.05z"/>
			<polyline style="fill:none;stroke:#000000;stroke-width:20;stroke-linejoin:round;stroke-miterlimit:10;" points="226.78,98.05 
				269.72,38.5 237.32,10 191.5,10 159.11,38.5 202.05,98.05 			"/>
			<polyline style="fill:none;stroke:#000000;stroke-width:20;stroke-linejoin:round;stroke-miterlimit:10;" points="159.11,38.5 
				214.41,38.5 269.72,38.5 			"/>
			
				<line style="fill:none;stroke:#000000;stroke-width:20;stroke-linejoin:round;stroke-miterlimit:10;" x1="214.41" y1="98.06" x2="214.41" y2="38.5"/>
		</g>
	</g>
</g>
</svg>
